<svg width="16" height="16" viewBox="0 0 20 20" fill="none" xmlns="http://www.w3.org/2000/svg">
<g clip-path="url(#clip0)">
<path d="M11.5303 19.8096C10.6435 20.1835 9.66459 19.9984 8.97557 19.3266C8.95936 19.3107 8.94385 19.2942 8.92908 19.2771L4.50447 14.1405H3.12814C1.40572 14.1405 0.00439453 12.7391 0.00439453 11.0167V8.98628C0.00439453 7.26386 1.40572 5.86253 3.12814 5.86253H4.50451L8.92912 0.725887C8.94389 0.70874 8.95939 0.692215 8.97561 0.676434C9.431 0.23241 10.012 -9.53674e-06 10.6094 2.86102e-05C10.9193 2.86102e-05 11.2336 0.0625668 11.5369 0.190458C12.4196 0.562607 12.9679 1.38948 12.9679 2.34835C12.9679 2.77968 12.6183 3.12929 12.1869 3.12929C11.7556 3.12929 11.406 2.77968 11.406 2.34835C11.406 1.86765 11.0417 1.67671 10.9301 1.62964C10.8186 1.58265 10.4334 1.4569 10.087 1.77479L5.4542 7.15307C5.30588 7.3253 5.08982 7.42432 4.86252 7.42432H3.12814C2.26693 7.42432 1.56627 8.12499 1.56627 8.9862V11.0166C1.56627 11.8778 2.26693 12.5785 3.12814 12.5785H4.86252C5.08982 12.5785 5.30584 12.6776 5.4542 12.8498L10.0869 18.2281C10.4296 18.5423 10.8126 18.4171 10.9235 18.3704C11.0367 18.3227 11.406 18.1292 11.406 17.6433V6.25296C11.406 5.82163 11.7556 5.47202 12.1869 5.47202C12.6183 5.47202 12.9679 5.82163 12.9679 6.25296V17.6433C12.9679 18.6057 12.4171 19.4357 11.5303 19.8096Z" fill="white"/>
<path d="M16.2708 7.75428L16.2887 7.78718C16.493 8.16179 16.8731 8.85901 16.8731 10.001C16.8731 11.1857 16.4618 11.9114 16.2641 12.2602C16.0514 12.6354 15.5749 12.7673 15.1996 12.5546C14.8244 12.3419 14.6926 11.8653 14.9053 11.4901C15.0669 11.2049 15.3112 10.7739 15.3112 10.001C15.3112 9.25714 15.0742 8.82245 14.9174 8.53479L14.8983 8.49972C14.6924 8.12073 14.8328 7.64659 15.2118 7.44073C15.3303 7.37639 15.4579 7.34588 15.5839 7.34588C15.8608 7.34588 16.1292 7.49366 16.2708 7.75428Z" fill="white"/>
<path d="M17.4218 16.1587C17.1154 16.4622 16.6209 16.4598 16.3174 16.1534C16.0139 15.8469 16.0162 15.3525 16.3227 15.049C17.6843 13.7003 18.4341 11.9088 18.4341 10.0045C18.4341 8.09628 17.6843 6.3026 16.3227 4.95393C16.0162 4.65042 16.0139 4.15592 16.3174 3.84952C16.4701 3.69534 16.6711 3.61815 16.8723 3.61815C17.0709 3.61815 17.2696 3.69346 17.4218 3.84428C19.0818 5.4885 19.9959 7.67628 19.9959 10.0045C19.996 12.3289 19.0818 14.5144 17.4218 16.1587Z" fill="white"/>
</g>
<defs>
<clipPath id="clip0">
<rect width="20" height="20" fill="white" transform="matrix(1 0 0 -1 0 20)"/>
</clipPath>
</defs>
</svg>
