<svg width="16" height="16" viewBox="0 0 17 20" fill="none" xmlns="http://www.w3.org/2000/svg">
<path d="M8.20895 14.8062C8.78281 14.8062 9.24799 14.341 9.24799 13.7672V1.03903C9.24799 0.465175 8.78281 0 8.20895 0C7.6351 0 7.16992 0.465175 7.16992 1.03903V13.7672C7.16992 14.341 7.6351 14.8062 8.20895 14.8062Z" fill="white"/>
<path d="M5.94703 19.0829C5.9488 19.0846 5.95051 19.0864 5.95228 19.0882C6.56016 19.6961 7.35855 19.9999 8.15695 19.9999C8.95471 19.9999 9.75238 19.6964 10.3591 19.0896L16.1109 13.3602C16.5175 12.9552 16.5188 12.2974 16.1139 11.8908C15.7089 11.4843 15.051 11.4829 14.6445 11.8879L8.89113 17.6188C8.69485 17.815 8.43395 17.9231 8.15643 17.9231C7.87989 17.9231 7.61982 17.8158 7.42381 17.6209L1.77901 11.8946C1.37617 11.4859 0.718258 11.4812 0.309607 11.884C-0.0990447 12.2869 -0.103772 12.9447 0.29906 13.3534L5.94703 19.0829Z" fill="white"/>
</svg>
