<svg width="16" height="16" viewBox="0 0 18 18" fill="none" xmlns="http://www.w3.org/2000/svg">
<g clip-path="url(#clip0)">
<path d="M0.626886 5.44118C0.973179 5.44118 1.25377 5.1605 1.25377 4.81429V2.14142L5.29134 6.17815C5.41379 6.30052 5.57419 6.3617 5.73459 6.3617C5.89507 6.3617 6.05556 6.30052 6.17792 6.17806C6.42274 5.93324 6.42274 5.5363 6.17784 5.29156L2.14011 1.25475H4.81357C5.15978 1.25475 5.44045 0.974071 5.44045 0.627863C5.44045 0.281654 5.15986 0.000976562 4.81357 0.000976562H0.626886C0.280594 0.000976562 0 0.281654 0 0.627863V4.81438C0 5.1605 0.280594 5.44118 0.626886 5.44118Z" fill="white"/>
<path d="M17.3733 12.5593C17.0271 12.5593 16.7465 12.84 16.7465 13.1862V15.8591L12.5846 11.6973C12.3397 11.4525 11.9428 11.4525 11.698 11.6973C11.4532 11.9421 11.4532 12.3391 11.698 12.5838L15.8598 16.7456H13.187C12.8407 16.7456 12.5601 17.0262 12.5601 17.3724C12.5601 17.7187 12.8407 17.9993 13.187 17.9993H17.3734C17.7197 17.9993 18.0003 17.7187 18.0003 17.3724V13.1862C18.0002 12.84 17.7196 12.5593 17.3733 12.5593Z" fill="white"/>
<path d="M5.4157 11.6973L1.25426 15.8591V13.1862C1.25426 12.84 0.973667 12.5593 0.627375 12.5593C0.281083 12.5593 0.000488281 12.84 0.000488281 13.1862V17.3726C0.000488281 17.7188 0.281083 17.9995 0.627375 17.9995H4.81364C5.15985 17.9995 5.44053 17.7188 5.44053 17.3726C5.44053 17.0264 5.15993 16.7457 4.81364 16.7457H2.14076L6.30229 12.5838C6.54711 12.339 6.54711 11.942 6.3022 11.6972C6.05755 11.4525 5.6606 11.4525 5.4157 11.6973Z" fill="white"/>
<path d="M17.3735 0H13.187C12.8407 0 12.5601 0.280678 12.5601 0.626886C12.5601 0.973095 12.8407 1.25377 13.187 1.25377H15.86L11.823 5.291C11.5782 5.53582 11.5782 5.93277 11.8231 6.17759C11.9455 6.29996 12.1059 6.36114 12.2663 6.36114C12.4267 6.36114 12.5872 6.29987 12.7097 6.17751L16.7467 2.14027V4.81332C16.7467 5.15953 17.0272 5.4402 17.3735 5.4402C17.7198 5.4402 18.0004 5.15953 18.0004 4.81332V0.626886C18.0003 0.280594 17.7197 0 17.3735 0Z" fill="white"/>
</g>
<defs>
<clipPath id="clip0">
<rect width="18" height="18" fill="white"/>
</clipPath>
</defs>
</svg>
