<svg width="16" height="16" viewBox="0 0 20 20" fill="none" xmlns="http://www.w3.org/2000/svg">
<path d="M4.86328 20H3.49609C1.77297 20 0.371094 18.5981 0.371094 16.875V3.125C0.371094 1.40187 1.77297 0 3.49609 0H4.86328C6.58641 0 7.98828 1.40187 7.98828 3.125V16.875C7.98828 18.5981 6.58641 20 4.86328 20ZM6.42578 3.125C6.42578 2.26344 5.72484 1.5625 4.86328 1.5625H3.49609C2.63453 1.5625 1.93359 2.26344 1.93359 3.125V16.875C1.93359 17.7366 2.63453 18.4375 3.49609 18.4375H4.86328C5.72484 18.4375 6.42578 17.7366 6.42578 16.875V3.125Z" fill="white"/>
<path d="M18.8477 6.25C19.2791 6.25 19.6289 6.59977 19.6289 7.03125V16.875C19.6289 18.5981 18.227 20 16.5039 20H15.1758C13.4527 20 12.0508 18.5981 12.0508 16.875V3.125C12.0508 1.40187 13.4527 0 15.1758 0H16.5039C18.227 0 19.6289 1.40187 19.6289 3.125C19.6289 3.55648 19.2791 3.90625 18.8477 3.90625C18.4162 3.90625 18.0664 3.55648 18.0664 3.125C18.0664 2.26344 17.3655 1.5625 16.5039 1.5625H15.1758C14.3142 1.5625 13.6133 2.26344 13.6133 3.125V16.875C13.6133 17.7366 14.3142 18.4375 15.1758 18.4375H16.5039C17.3655 18.4375 18.0664 17.7366 18.0664 16.875V7.03125C18.0664 6.59977 18.4162 6.25 18.8477 6.25Z" fill="white"/>
</svg>
