<svg width="18" height="18" viewBox="0 0 26 30" fill="none" xmlns="http://www.w3.org/2000/svg">
<path d="M24.0075 18.4615L6.28871 29.3837C5.00679 30.1729 3.45692 30.2057 2.14272 29.4715C0.828517 28.7373 0.0439453 27.4002 0.0439453 25.8948V4.14994C0.0439453 1.8738 1.87793 0.0121021 4.13204 -0.000204086C4.13819 -0.000204086 4.14434 -0.000261307 4.15038 -0.000261307C4.8548 -0.000204086 5.58886 0.220577 6.27447 0.638939C6.82601 0.975443 7.00033 1.69533 6.66382 2.24681C6.32732 2.79842 5.60732 2.97267 5.05595 2.63617C4.73526 2.44058 4.42208 2.33939 4.14464 2.33945C3.29415 2.34408 2.38354 3.07263 2.38354 4.14988V25.8948C2.38354 26.5405 2.7201 27.114 3.28378 27.4289C3.84751 27.7439 4.51226 27.7298 5.06146 27.3917L22.7803 16.4695C23.3129 16.1416 23.6176 15.5948 23.6163 14.9694C23.615 14.344 23.3081 13.7985 22.7726 13.4718L9.96178 5.62791C9.41076 5.29053 9.23756 4.57035 9.57494 4.01939C9.91227 3.46838 10.6324 3.29517 11.1835 3.63256L23.9927 11.4755C25.2192 12.2236 25.9531 13.528 25.956 14.9647C25.959 16.4013 25.2303 17.7087 24.0075 18.4615Z" fill="#7372C4"/>
</svg>
