<svg width="16" height="16" viewBox="0 0 20 20" fill="none" xmlns="http://www.w3.org/2000/svg">
<g clip-path="url(#clip0)">
<path d="M17.3385 12.3078L5.52597 19.5893C4.67136 20.1154 3.63811 20.1373 2.76198 19.6478C1.88584 19.1584 1.36279 18.2669 1.36279 17.2634V2.76679C1.36279 1.24936 2.58545 0.00823021 4.08819 2.86102e-05C4.09229 2.86102e-05 4.09639 -1.14441e-05 4.10042 -1.14441e-05C4.57003 2.67029e-05 5.0594 0.147215 5.51647 0.426123C5.88417 0.650459 6.00038 1.13038 5.77604 1.49804C5.55171 1.86577 5.07171 1.98195 4.70413 1.75761C4.49034 1.62722 4.28155 1.55976 4.09659 1.5598C3.52959 1.56288 2.92252 2.04859 2.92252 2.76675V17.2633C2.92252 17.6939 3.1469 18.0762 3.52268 18.2861C3.8985 18.4961 4.34167 18.4867 4.7078 18.2613L16.5204 10.9798C16.8754 10.7612 17.0786 10.3967 17.0777 9.97977C17.0769 9.56286 16.8722 9.19919 16.5152 8.98133L7.97468 3.75211C7.60734 3.52718 7.49187 3.04706 7.71679 2.67976C7.94167 2.31241 8.42179 2.19695 8.78914 2.42187L17.3286 7.65047C18.1463 8.14926 18.6356 9.0188 18.6375 9.97665C18.6395 10.9344 18.1537 11.8059 17.3385 12.3078Z" fill="white"/>
</g>
<defs>
<clipPath id="clip0">
<rect width="20" height="20" fill="white" transform="matrix(1 0 0 -1 0 20)"/>
</clipPath>
</defs>
</svg>
