<?xml version="1.0" standalone="no"?>
<!DOCTYPE svg PUBLIC "-//W3C//DTD SVG 20010904//EN"
 "http://www.w3.org/TR/2001/REC-SVG-20010904/DTD/svg10.dtd">
<svg version="1.0" xmlns="http://www.w3.org/2000/svg"
 width="700.000000pt" height="700.000000pt" viewBox="0 0 700.000000 700.000000"
 preserveAspectRatio="xMidYMid meet">
<metadata>
Created by potrace 1.11, written by Peter Selinger 2001-2013
</metadata>
<g transform="translate(0.000000,700.000000) scale(0.100000,-0.100000)"
fill="#000000" stroke="none">
<path d="M3777 6569 c-12 -3 -127 -111 -254 -239 l-233 -233 0 -346 0 -346
364 -364 364 -364 -1773 -1773 c-1158 -1157 -1781 -1786 -1794 -1813 -27 -53
-28 -138 -2 -190 27 -52 411 -431 458 -453 45 -20 101 -22 157 -6 36 10 262
232 1826 1795 l1785 1783 365 -365 365 -365 347 0 347 0 231 231 c127 128 235
241 239 253 5 16 7 653 2 712 -1 7 -2022 2035 -2076 2083 -8 7 -693 7 -718 0z"/>
</g>
</svg>
